# xmcd CD database file
#
# Track frame offsets:
#	150
#	16425
#	39787
#	72162
#	93782
#	121967
#	148615
#	176235
#	190697
#	215787
#	232525
#	246297
#	257170
#	273932
#	285217
#	300102
#	310307
#
# Disc length: 4266 seconds
#
# Revision: 2
# Processed by: cddbd v1.5.2PL0 Copyright (c) Steve Scherf et al.
# Submitted via: CDex 1.51
#
DISCID=de10a811
DTITLE=Jerry Lee Lewis - Mercury Smashes CD 06
DYEAR=1900
DGENRE=Country
TTITLE0=Meat Man (master vocal - piano mix)
TTITLE1=Big Blue Diamonds (instrumental - piano mix)
TTITLE2=I Sure Miss Those Good Old Times (duet vocal - piano mix)
TTITLE3=Chatter: Jerry Lee Lewis, Tony Joe White, Huey Meaux
TTITLE4=When A Man Loves A Woman (alternate vocal - piano mix)
TTITLE5=Silver Threads Among The Gold (master - vocal - piano mix)
TTITLE6=Hold On I'm Coming (false start - vocal - piano mix and fast master and slow rehearsal)
TTITLE7=Cry (4) (rehearsal - vocal - piano mix)
TTITLE8=Margie (false start and take) (rehearsal vocal - piano mix)
TTITLE9=A Picture From Life's Other Side
TTITLE10=I've Forgot More About You Than He'll Ever Know
TTITLE11=Until The Day Forever Ends
TTITLE12=Boogie Woogie Country Man
TTITLE13=I Can Still Hear The Music In The Restroom
TTITLE14=Speak A Little Louder To Us Jesus
TTITLE15=Honey Hush
TTITLE16=Jesus Is On The Mainline (Call Him Sometime)
EXTD=
EXTT0=
EXTT1=
EXTT2=
EXTT3=
EXTT4=
EXTT5=
EXTT6=
EXTT7=
EXTT8=
EXTT9=
EXTT10=
EXTT11=
EXTT12=
EXTT13=
EXTT14=
EXTT15=
EXTT16=
PLAYORDER=
